<svg xmlns="http://www.w3.org/2000/svg" xmlns:xlink="http://www.w3.org/1999/xlink" width="112.976" height="40" viewBox="0 0 112.976 40"><defs><clipPath id="a"><rect width="112.976" height="40" fill="none"/></clipPath></defs><g clip-path="url(#a)"><g transform="translate(-0.918)"><path d="M.918,16.657H6.149v2.027A9.991,9.991,0,0,1,8.707,16.61a5.855,5.855,0,0,1,2.7-.582,8.437,8.437,0,0,1,4.325,1.351l-2.395,4.8a4.989,4.989,0,0,0-2.906-1.072q-4.278,0-4.278,6.476V39.348H.918Z" fill="#fff"/><path d="M17.24,27.839a11.286,11.286,0,0,1,3.511-8.364,11.752,11.752,0,0,1,8.556-3.448,11.817,11.817,0,0,1,8.6,3.471A11.563,11.563,0,0,1,41.4,28.026a11.5,11.5,0,0,1-3.511,8.55A11.987,11.987,0,0,1,29.214,40a11.5,11.5,0,0,1-8.533-3.494A11.764,11.764,0,0,1,17.24,27.839Zm5.348.093A7.663,7.663,0,0,0,24.4,33.314a6.379,6.379,0,0,0,4.906,2,6.37,6.37,0,0,0,4.906-1.98,7.467,7.467,0,0,0,1.837-5.288,7.467,7.467,0,0,0-1.837-5.288,6.379,6.379,0,0,0-4.906-2,6.324,6.324,0,0,0-4.859,2A7.3,7.3,0,0,0,22.588,27.932Z" fill="#fff"/><path d="M52.186,0V19.289A9.645,9.645,0,0,1,59.3,16.028a9.781,9.781,0,0,1,7.626,3.424,12.242,12.242,0,0,1,3.046,8.48A12.5,12.5,0,0,1,66.9,36.6a9.886,9.886,0,0,1-7.7,3.4,9.777,9.777,0,0,1-7.022-3.028v2.376H46.955V0ZM64.626,28.165a7.847,7.847,0,0,0-1.767-5.312,5.657,5.657,0,0,0-4.487-2.1,6.01,6.01,0,0,0-4.7,2.027A7.537,7.537,0,0,0,51.884,28a7.648,7.648,0,0,0,1.767,5.288,5.87,5.87,0,0,0,4.65,2.027,5.762,5.762,0,0,0,4.511-2.027A7.452,7.452,0,0,0,64.626,28.165Z" fill="#fff"/><path d="M74.438,27.839a11.286,11.286,0,0,1,3.511-8.364,12.369,12.369,0,0,1,17.159.023A11.564,11.564,0,0,1,98.6,28.026a11.5,11.5,0,0,1-3.511,8.55A11.987,11.987,0,0,1,86.412,40a11.5,11.5,0,0,1-8.533-3.494A11.764,11.764,0,0,1,74.438,27.839Zm5.348.093A7.662,7.662,0,0,0,81.6,33.314a7.038,7.038,0,0,0,9.812.023,7.467,7.467,0,0,0,1.837-5.288,7.467,7.467,0,0,0-1.837-5.288,6.951,6.951,0,0,0-9.765,0A7.3,7.3,0,0,0,79.785,27.932Z" fill="#fff"/><path d="M109.825,21.549v17.8h-5.231v-17.8h-2.232V16.657h2.232V8.34h5.231v8.317h4.069v4.892Z" fill="#fff"/></g></g></svg>