<svg width="114" height="40" viewBox="0 0 114 40" fill="none" xmlns="http://www.w3.org/2000/svg">
<path d="M0.917969 16.657H6.14943V18.6838C7.11047 17.6742 7.96301 16.9831 8.70704 16.6104C9.46657 16.2221 10.3656 16.028 11.4041 16.028C12.7837 16.028 14.2253 16.4784 15.7288 17.3792L13.334 22.1782C12.3419 21.4638 11.3731 21.1066 10.4276 21.1066C7.57549 21.1066 6.14943 23.2654 6.14943 27.583V39.3477H0.917969V16.657Z" fill="white"/>
<path d="M17.2401 27.8393C17.2401 24.5622 18.4104 21.7744 20.751 19.4758C23.0916 17.1772 25.9437 16.028 29.3074 16.028C32.6865 16.028 35.5541 17.185 37.9102 19.4991C40.2353 21.8132 41.3979 24.6554 41.3979 28.0256C41.3979 31.4269 40.2276 34.2768 37.887 36.5754C35.5309 38.8585 32.64 40 29.2144 40C25.8197 40 22.9754 38.8352 20.6813 36.5055C18.3872 34.207 17.2401 31.3182 17.2401 27.8393ZM22.5879 27.9324C22.5879 30.2 23.1924 31.9938 24.4014 33.3139C25.6415 34.6496 27.2768 35.3174 29.3074 35.3174C31.3535 35.3174 32.9888 34.6573 34.2133 33.3372C35.4379 32.0171 36.0501 30.2543 36.0501 28.0489C36.0501 25.8435 35.4379 24.0808 34.2133 22.7606C32.9733 21.425 31.338 20.7571 29.3074 20.7571C27.3078 20.7571 25.688 21.425 24.4479 22.7606C23.2079 24.0963 22.5879 25.8202 22.5879 27.9324Z" fill="white"/>
<path d="M52.1863 0V19.2895C54.2789 17.1151 56.6505 16.028 59.3011 16.028C62.3547 16.028 64.8968 17.1695 66.9274 19.4525C68.958 21.7201 69.9733 24.5467 69.9733 27.9324C69.9733 31.4269 68.9502 34.3157 66.9042 36.5987C64.8736 38.8662 62.3082 40 59.2081 40C56.5885 40 54.2479 38.9905 52.1863 36.9715V39.3477H46.9548V0H52.1863ZM64.6256 28.1654C64.6256 25.9911 64.0365 24.2205 62.8585 22.8538C61.6649 21.456 60.1691 20.7571 58.3711 20.7571C56.449 20.7571 54.8834 21.4327 53.6744 22.7839C52.4808 24.1196 51.884 25.8591 51.884 28.0023C51.884 30.2077 52.4731 31.9705 53.6511 33.2906C54.8292 34.6418 56.3792 35.3174 58.3013 35.3174C60.1149 35.3174 61.6184 34.6418 62.812 33.2906C64.021 31.9239 64.6256 30.2155 64.6256 28.1654Z" fill="white"/>
<path d="M74.4375 27.8393C74.4375 24.5622 75.6078 21.7744 77.9484 19.4758C80.289 17.1772 83.1411 16.028 86.5047 16.028C89.8838 16.028 92.7515 17.185 95.1076 19.4991C97.4326 21.8132 98.5952 24.6554 98.5952 28.0256C98.5952 31.4269 97.4249 34.2768 95.0843 36.5754C92.7282 38.8585 89.8373 40 86.4117 40C83.0171 40 80.1727 38.8352 77.8786 36.5055C75.5845 34.207 74.4375 31.3182 74.4375 27.8393ZM79.7852 27.9324C79.7852 30.2 80.3897 31.9938 81.5988 33.3139C82.8388 34.6496 84.4741 35.3174 86.5047 35.3174C88.5508 35.3174 90.1861 34.6573 91.4107 33.3372C92.6352 32.0171 93.2475 30.2543 93.2475 28.0489C93.2475 25.8435 92.6352 24.0808 91.4107 22.7606C90.1706 21.425 88.5353 20.7571 86.5047 20.7571C84.5051 20.7571 82.8853 21.425 81.6453 22.7606C80.4052 24.0963 79.7852 25.8202 79.7852 27.9324Z" fill="white"/>
<path d="M109.825 21.5492V39.3477H104.594V21.5492H102.362V16.657H104.594V8.34013H109.825V16.657H113.894V21.5492H109.825Z" fill="white"/>
</svg>
